# xmcd
#
# Track frame offsets:
#	151
#	10835
#	20375
#	32167
#	45510
#	54453
#	66036
#	75935
#	84879
#	92784
#	105868
#	116902
#	127310
#	136304
#	147551
#	158128
#	169923
#	180960
#	192942
#	203502
#	213880
#	223113
#	234091
#	243504
#	252572
#
# Disc length: 3512
#
# Revision: 2
# Processed by: cddbd v1.5.1PL0 Copyright (c) Steve Scherf et al.
# Submitted via: audiograbber 1.82.02
# Normalized: r1:DSETVAR1
#
DISCID=4e0db619
DTITLE=Various Artist - The Best of Sun Rock'n'Roll Vol. 1
DYEAR=1900
DGENRE=
TTITLE0=Frank Ballard - Shake Em Up Baby
TTITLE1=Jerry McGill - Lovestruck
TTITLE2=Billy Lee Riley - Pearly Lee
TTITLE3=Wade Cagle - Forty Days
TTITLE4=Roy Orbison - Claudette
TTITLE5=Tracy Pendarvis - Belle Of The Suwanee
TTITLE6=Thomas Wayne - Tragedy
TTITLE7=Bill Johnson - Bobaloo
TTITLE8=Johnny Powers - Trouble
TTITLE9=Carl Perkins - Roll Over Beethoven
TTITLE10=Rayburn Anthony - Hambone
TTITLE11=Harold Dorman - Wait Till Saturday Night
TTITLE12=Eddie Bush - Hey Baby Doll
TTITLE13=Smokey Joe Baugh - She's A Woman
TTITLE14=Charlie Rich - Yes Ma'am
TTITLE15=Carl McVoy - Lonely Heart
TTITLE16=James Woods - Gonna Give You A Party
TTITLE17=Carl Mann - Pretend
TTITLE18=Cliff Thomas - Mean Old World
TTITLE19=Ernie Barton - Stairway To Nowhere
TTITLE20=Jimmy Isle - Without A Love
TTITLE21=Warren Smith - Miss Froggie
TTITLE22=Glenn Honeycutt - Rock All Night
TTITLE23=Ken Cook - Don't Be Running Wild (Problem Child)
TTITLE24=Jerry Lee Lewis - Mean Woman Blues
EXTD=
EXTT0=
EXTT1=
EXTT2=
EXTT3=
EXTT4=
EXTT5=
EXTT6=
EXTT7=
EXTT8=
EXTT9=
EXTT10=
EXTT11=
EXTT12=
EXTT13=
EXTT14=
EXTT15=
EXTT16=
EXTT17=
EXTT18=
EXTT19=
EXTT20=
EXTT21=
EXTT22=
EXTT23=
EXTT24=
PLAYORDER=
